<svg xmlns="http://www.w3.org/2000/svg" viewBox="0 0 800 520" fill="none">
  <defs>
    <linearGradient id="bg" x1="0" y1="0" x2="800" y2="520" gradientUnits="userSpaceOnUse">
      <stop stop-color="#142116"/>
      <stop offset="1" stop-color="#3A220E"/>
    </linearGradient>
    <linearGradient id="accent" x1="174" y1="150" x2="608" y2="376" gradientUnits="userSpaceOnUse">
      <stop stop-color="#FFE066"/>
      <stop offset=".5" stop-color="#7CF7C9"/>
      <stop offset="1" stop-color="#FF9F6E"/>
    </linearGradient>
  </defs>
  <rect width="800" height="520" rx="34" fill="url(#bg)"/>
  <rect x="94" y="76" width="612" height="368" rx="28" fill="#101A15" stroke="white" stroke-opacity=".08"/>
  <rect x="122" y="104" width="230" height="312" rx="24" fill="#0D1511" stroke="white" stroke-opacity=".08"/>
  <circle cx="237" cy="250" r="92" fill="#F7FAFF" fill-opacity=".08"/>
  <circle cx="237" cy="250" r="68" fill="#FFF9EE"/>
  <circle cx="205" cy="226" r="20" fill="#7CF7C9"/>
  <circle cx="262" cy="214" r="18" fill="#FFE066"/>
  <circle cx="271" cy="270" r="22" fill="#FF9F6E"/>
  <circle cx="210" cy="282" r="18" fill="#A4F4B5"/>
  <rect x="386" y="104" width="292" height="144" rx="24" fill="#0D1511" stroke="white" stroke-opacity=".08"/>
  <text x="414" y="150" fill="#F8FBFF" font-family="Arial, sans-serif" font-size="22" font-weight="700">AI Diet Planner</text>
  <text x="414" y="182" fill="#AFC5B2" font-family="Arial, sans-serif" font-size="16">Nutrition goals • Calorie balance</text>
  <rect x="386" y="272" width="292" height="144" rx="24" fill="#0D1511" stroke="white" stroke-opacity=".08"/>
  <rect x="414" y="304" width="206" height="12" rx="6" fill="url(#accent)"/>
  <rect x="414" y="332" width="152" height="12" rx="6" fill="#F7FAFF" fill-opacity=".12"/>
  <rect x="414" y="360" width="176" height="12" rx="6" fill="#F7FAFF" fill-opacity=".12"/>
  <rect x="414" y="388" width="124" height="12" rx="6" fill="#7CF7C9"/>
</svg>
